<svg width="157" height="80" viewBox="0 0 157 80" fill="none" xmlns="http://www.w3.org/2000/svg">
<g clip-path="url(#clip0_242_35)">
<path d="M2.96123 79.733C2.80255 79.7268 2.56762 79.711 2.25641 79.6886C1.94565 79.6658 1.71027 79.6566 1.55511 79.6566C1.39381 79.6566 1.15187 79.6658 0.828391 79.6886C0.50798 79.711 0.266474 79.7268 0.104736 79.733V66.6641H7.37895C7.31544 67.1283 7.28032 67.4018 7.28032 67.4844C7.28032 67.5639 7.31544 67.8375 7.37895 68.3048C6.67462 68.2191 5.99216 68.1554 5.32899 68.1081C4.66539 68.0602 3.87511 68.0378 2.96123 68.0378V79.733ZM14.2917 80C12.8886 80 11.6543 79.733 10.5905 79.1985C9.52449 78.6641 8.70312 77.8859 8.11885 76.8583C7.53806 75.8315 7.24576 74.6071 7.24576 73.1856C7.24576 72.2353 7.41407 71.3415 7.75328 70.5084C8.0899 69.6723 8.58519 68.9407 9.23263 68.3109C9.88355 67.6816 10.6734 67.1951 11.6035 66.8454C12.5331 66.4955 13.5837 66.3206 14.7483 66.3206C16.0401 66.3206 17.1447 66.524 18.0585 66.9341C18.9755 67.3412 19.7027 67.8788 20.2452 68.5433C20.7879 69.2081 21.1815 69.9297 21.4226 70.7149C21.6636 71.5 21.7877 72.2989 21.7938 73.1127C21.7938 74.0446 21.6225 74.9251 21.2766 75.7582C20.9338 76.5882 20.4324 77.326 19.7754 77.9649C19.1183 78.6039 18.3254 79.1032 17.3887 79.4629C16.456 79.8221 15.4247 80 14.2917 80ZM10.4073 73.7389C10.4073 74.6229 10.5463 75.4534 10.8259 76.2316C11.1051 77.0111 11.543 77.6435 12.1395 78.1274C12.7391 78.6136 13.4856 78.8556 14.3868 78.8556C15.3129 78.8556 16.1006 78.5758 16.7414 78.0194C17.3827 77.463 17.8587 76.7186 18.1694 75.7867C18.4776 74.8583 18.6331 73.8443 18.6331 72.7464C18.6331 72.1017 18.5573 71.4689 18.4043 70.8519C18.2491 70.2349 18.0111 69.6657 17.6842 69.1506C17.3572 68.6355 16.9351 68.2253 16.4209 67.9231C15.9063 67.6179 15.3073 67.4656 14.6182 67.4656C13.7327 67.4656 12.9746 67.6943 12.346 68.1489C11.721 68.6039 11.2384 69.2999 10.9048 70.2349C10.5721 71.1694 10.4073 72.3402 10.4073 73.7389ZM26.9353 79.733C26.7705 79.7268 26.5325 79.711 26.2182 79.6886C25.9039 79.6658 25.6654 79.6566 25.5042 79.6566C25.3424 79.6566 25.1009 79.6658 24.7901 79.6886C24.4759 79.711 24.2405 79.7268 24.0791 79.733V66.6641H28.7665C30.1029 66.6641 31.1151 66.9341 31.8036 67.4716C32.4922 68.0127 32.8385 68.8168 32.8385 69.888C32.8385 70.9665 32.5943 71.8119 32.1087 72.4223C31.6196 73.0332 30.9468 73.4561 30.0867 73.6849C29.2267 73.9137 28.1761 74.0314 26.9353 74.0314V79.733ZM26.9353 72.9603C27.4941 72.9348 27.9126 72.89 28.1892 72.8268C28.7731 72.6674 29.2018 72.3525 29.4744 71.8883C29.7505 71.4241 29.8868 70.8738 29.8868 70.2349C29.8868 69.4879 29.7185 68.8805 29.3793 68.4129C29.0395 67.9455 28.6175 67.7132 28.1161 67.7132H26.9353V72.9603ZM46.0094 66.6641C46.0383 66.6671 46.1522 66.686 46.349 66.7242C46.5458 66.7594 46.6918 66.7786 46.7935 66.7786C46.8601 66.7786 46.9456 66.7721 47.0438 66.7594C47.1455 66.7466 47.2379 66.7313 47.323 66.715C47.4088 66.6992 47.5141 66.683 47.6342 66.6641C47.7933 68.0439 47.9611 69.4812 48.1294 70.9788C48.3009 72.4768 48.428 73.5676 48.5104 74.2545C48.5928 74.9409 48.7037 75.7836 48.8466 76.7854C48.9894 77.7871 49.1416 78.7695 49.3068 79.733C49.1232 79.7268 48.8562 79.711 48.5038 79.6886C48.1519 79.6658 47.8884 79.6566 47.7074 79.6566C47.5263 79.6566 47.2722 79.6658 46.9456 79.6886C46.6155 79.711 46.3617 79.7268 46.1842 79.733C46.1492 79.0207 46.1014 78.2798 46.0383 77.5108C45.9747 76.7406 45.9081 76.041 45.8411 75.4117C45.7749 74.7819 45.7047 74.1267 45.6316 73.4464C45.5588 72.7631 45.4698 71.908 45.3655 70.8805C45.1271 71.3666 44.7873 72.0508 44.3465 72.941C43.9055 73.8281 43.5311 74.5944 43.2195 75.243C42.9087 75.8917 42.5406 76.6646 42.1154 77.564C41.6903 78.4673 41.3659 79.1638 41.1375 79.6566H40.4143C40.2079 79.2047 39.8874 78.5249 39.4434 77.6092C39.0021 76.6962 38.6619 75.9935 38.4208 75.51C38.1802 75.0234 37.815 74.2826 37.3264 73.2844C36.8377 72.2888 36.476 71.5515 36.2441 71.071C35.7554 74.8456 35.4885 77.7326 35.4443 79.733C35.3461 79.7268 35.197 79.711 34.9967 79.6886C34.7999 79.6658 34.6509 79.6566 34.5527 79.6566C34.4506 79.6566 34.3016 79.6658 34.1114 79.6886C33.9206 79.711 33.7686 79.7268 33.6541 79.733C33.9746 78.0062 34.2735 76.1806 34.5527 74.2602C34.832 72.3402 35.1834 69.8089 35.6156 66.6641C35.7331 66.683 35.8317 66.6992 35.9141 66.715C35.993 66.7313 36.0789 66.7466 36.1679 66.7594C36.2599 66.7721 36.3362 66.7786 36.3963 66.7786C36.4567 66.7786 36.5326 66.7721 36.6312 66.7594C36.7294 66.7466 36.8184 66.7313 36.8946 66.715C36.9704 66.6992 37.066 66.683 37.1769 66.6641C37.6021 67.5736 37.9453 68.2986 38.2087 68.8423C38.4686 69.3825 38.8149 70.0917 39.2461 70.963C39.6775 71.8343 40.0904 72.6612 40.487 73.4499C40.8807 74.2382 41.2458 74.9633 41.5758 75.6312C41.671 75.4464 41.9563 74.8935 42.4266 73.9743C42.8991 73.0591 43.3369 72.1935 43.7494 71.3829C44.1588 70.5722 44.5625 69.7574 44.9561 68.9407C45.3497 68.127 45.7017 67.3667 46.0094 66.6641ZM53.3244 75.7648C53.2135 76.0954 53.0583 76.5434 52.855 77.1002C52.655 77.6602 52.4807 78.1529 52.3409 78.5789C52.1979 79.0018 52.0804 79.3799 51.9919 79.7141C51.9095 79.7075 51.7662 79.6948 51.5602 79.679C51.3542 79.6632 51.2016 79.6566 51.0999 79.6566C50.9948 79.6566 50.8457 79.6632 50.6463 79.679C50.4495 79.6948 50.2938 79.7075 50.183 79.7141L55.629 66.4924C55.8762 66.5305 56.1143 66.5499 56.3527 66.5499C56.5867 66.5499 56.8287 66.5305 57.0764 66.4924L62.3887 79.733C62.198 79.7268 61.9223 79.711 61.5542 79.6886C61.186 79.6658 60.9129 79.6566 60.7289 79.6566C60.5478 79.6566 60.2752 79.6658 59.9136 79.6886C59.5515 79.711 59.285 79.7268 59.1106 79.733C58.536 77.8916 58.0849 76.5693 57.7584 75.7648H53.3244ZM57.324 74.601L55.629 70.1554L53.8421 74.601H57.324ZM70.2152 78.2833V66.6641C70.377 66.6641 70.612 66.683 70.9261 66.7212C71.2374 66.7594 71.4784 66.7786 71.6402 66.7786C71.8019 66.7786 72.0399 66.7594 72.3573 66.7212C72.6716 66.683 72.9095 66.6641 73.0718 66.6641V78.2833C73.1252 78.2833 73.3352 78.2926 73.703 78.3119C74.0746 78.3308 74.3823 78.34 74.6299 78.34C74.8803 78.34 75.1884 78.3308 75.5473 78.3119C75.9054 78.2926 76.1088 78.2833 76.1566 78.2833V66.6641C76.3218 66.6641 76.5595 66.6803 76.8702 66.712C77.1845 66.7436 77.4163 66.7594 77.5623 66.7594C77.7341 66.7594 77.9782 66.7436 78.2987 66.712C78.616 66.6803 78.854 66.6641 79.0131 66.6641V79.7488C77.8858 79.6886 75.4264 79.6566 71.6402 79.6566C70.0277 79.6566 68.5584 79.6632 67.2382 79.679C65.9181 79.6917 64.931 79.7141 64.2739 79.7488V66.6641C64.4357 66.6641 64.6741 66.6803 64.9883 66.712C65.3053 66.7436 65.5437 66.7594 65.6988 66.7594C65.8606 66.7594 66.0991 66.7436 66.4168 66.712C66.7302 66.6803 66.9687 66.6641 67.1304 66.6641V78.2833C67.1782 78.2833 67.3872 78.2926 67.759 78.3119C68.1301 78.3308 68.4343 78.34 68.6693 78.34C68.9362 78.34 69.2505 78.3308 69.606 78.3119C69.9611 78.2926 70.1644 78.2833 70.2152 78.2833ZM82.2531 66.6641H87.1662C88.2575 66.6641 89.1653 66.8898 89.8794 67.3382C90.5964 67.7897 90.9523 68.5304 90.9523 69.5607C90.9523 70.1202 90.809 70.6195 90.5237 71.0521C90.2379 71.4878 89.8539 71.8343 89.3748 72.0916C88.8953 72.3494 88.3816 72.5176 87.8293 72.5945V72.7693C88.7529 72.8645 89.5559 73.1474 90.2379 73.6212C90.9203 74.0951 91.26 74.8618 91.26 75.9176C91.26 76.7441 91.0409 77.4406 90.603 78.0062C90.1651 78.5688 89.594 78.986 88.8923 79.253C88.191 79.5231 87.4419 79.6566 86.6486 79.6566H82.2531V66.6641ZM85.0903 72.273H85.6996C86.4044 72.273 86.9378 72.1144 87.2989 71.793C87.8452 71.3385 88.1182 70.6766 88.1182 69.8089C88.1182 69.1379 87.9372 68.6227 87.5782 68.2574C87.2196 67.8946 86.7187 67.7132 86.0809 67.7132C85.8206 67.7132 85.4905 67.7326 85.0903 67.7703V72.273ZM85.0903 78.5499H86.0581C86.4171 78.5499 86.7726 78.4485 87.1214 78.2482C87.4708 78.0444 87.753 77.7555 87.9753 77.3804C88.1975 77.0019 88.3085 76.5592 88.3085 76.0537C88.3085 74.2576 87.4007 73.3608 85.5821 73.3608C85.3665 73.3608 85.2012 73.367 85.0903 73.3797V78.5499ZM99.9653 80C98.5623 80 97.328 79.733 96.2643 79.1985C95.1983 78.6641 94.3765 77.8859 93.7922 76.8583C93.2119 75.8315 92.9194 74.6071 92.9194 73.1856C92.9194 72.2353 93.0878 71.3415 93.4271 70.5084C93.7637 69.6723 94.259 68.9407 94.9063 68.3109C95.5568 67.6816 96.3471 67.1951 97.2772 66.8454C98.2068 66.4955 99.2575 66.3206 100.422 66.3206C101.714 66.3206 102.818 66.524 103.732 66.9341C104.649 67.3412 105.376 67.8788 105.919 68.5433C106.462 69.2081 106.855 69.9297 107.096 70.7149C107.337 71.5 107.461 72.2989 107.468 73.1127C107.468 74.0446 107.296 74.9251 106.95 75.7582C106.608 76.5882 106.106 77.326 105.449 77.9649C104.792 78.6039 103.999 79.1032 103.063 79.4629C102.13 79.8221 101.098 80 99.9653 80ZM96.081 73.7389C96.081 74.6229 96.2199 75.4534 96.4997 76.2316C96.7789 77.0111 97.2167 77.6435 97.8133 78.1274C98.4128 78.6136 99.1594 78.8556 100.06 78.8556C100.987 78.8556 101.774 78.5758 102.415 78.0194C103.056 77.463 103.532 76.7186 103.843 75.7867C104.151 74.8583 104.307 73.8443 104.307 72.7464C104.307 72.1017 104.231 71.4689 104.078 70.8519C103.923 70.2349 103.684 69.6657 103.358 69.1506C103.031 68.6355 102.609 68.2253 102.095 67.9231C101.58 67.6179 100.981 67.4656 100.292 67.4656C99.4066 67.4656 98.6482 67.6943 98.0197 68.1489C97.3947 68.6039 96.912 69.2999 96.5786 70.2349C96.2459 71.1694 96.081 72.3402 96.081 73.7389ZM119.96 77.5359L119.544 79.1796C118.471 79.7268 117.214 80 115.773 80C114.767 80 113.824 79.8502 112.949 79.5485C112.073 79.2464 111.311 78.8108 110.66 78.2447C110.009 77.6755 109.506 76.9953 109.146 76.1973C108.789 75.402 108.61 74.5241 108.61 73.5676C108.61 72.3556 108.808 71.2906 109.198 70.3718C109.587 69.4496 110.127 68.6926 110.818 68.0953C111.514 67.5006 112.317 67.0553 113.227 66.7594C114.142 66.4669 115.129 66.3206 116.193 66.3206C116.843 66.3206 117.522 66.4036 118.226 66.5683C118.934 66.7313 119.55 66.9601 120.073 67.2557C120 67.5446 119.924 67.8823 119.842 68.2696C119.759 68.6574 119.693 68.9758 119.636 69.2174H119.369C119.011 68.6894 118.544 68.2634 117.969 67.9455C117.395 67.6241 116.808 67.4656 116.211 67.4656C115.449 67.4656 114.789 67.6307 114.225 67.9583C113.656 68.289 113.193 68.7369 112.828 69.3034C112.463 69.8695 112.196 70.4953 112.028 71.1795C111.857 71.8628 111.771 72.569 111.771 73.3037C111.771 74.3937 111.946 75.3603 112.298 76.2004C112.651 77.0396 113.168 77.6918 113.85 78.1555C114.536 78.6232 115.352 78.8556 116.303 78.8556C116.878 78.8556 117.477 78.722 118.112 78.4515C118.744 78.1845 119.277 77.8407 119.709 77.4248L119.96 77.5359ZM126.532 79.733C126.374 79.7268 126.133 79.711 125.813 79.6886C125.488 79.6658 125.254 79.6566 125.105 79.6566C124.949 79.6566 124.711 79.6658 124.393 79.6886C124.074 79.711 123.835 79.7268 123.676 79.733V68.0185C122.635 68.0185 121.455 68.1081 120.134 68.289C120.198 67.8375 120.226 67.5639 120.226 67.4686C120.226 67.376 120.198 67.1094 120.134 66.6641H129.941C129.922 66.7813 129.906 66.8832 129.887 66.9662C129.87 67.0523 129.856 67.1414 129.846 67.2368C129.837 67.332 129.83 67.408 129.83 67.4686C129.83 67.5287 129.837 67.6087 129.846 67.707C129.856 67.8054 129.87 67.8977 129.887 67.9837C129.906 68.0694 129.922 68.1713 129.941 68.289C128.446 68.1081 127.31 68.0185 126.532 68.0185V79.733ZM136.986 80C135.584 80 134.35 79.733 133.286 79.1985C132.22 78.6641 131.397 77.8859 130.814 76.8583C130.234 75.8315 129.941 74.6071 129.941 73.1856C129.941 72.2353 130.109 71.3415 130.449 70.5084C130.786 69.6723 131.281 68.9407 131.928 68.3109C132.579 67.6816 133.369 67.1951 134.298 66.8454C135.228 66.4955 136.278 66.3206 137.444 66.3206C138.735 66.3206 139.84 66.524 140.753 66.9341C141.671 67.3412 142.397 67.8788 142.94 68.5433C143.483 69.2081 143.877 69.9297 144.118 70.7149C144.36 71.5 144.483 72.2989 144.489 73.1127C144.489 74.0446 144.318 74.9251 143.971 75.7582C143.629 76.5882 143.128 77.326 142.47 77.9649C141.814 78.6039 141.02 79.1032 140.085 79.4629C139.151 79.8221 138.12 80 136.986 80ZM133.102 73.7389C133.102 74.6229 133.242 75.4534 133.521 76.2316C133.8 77.0111 134.239 77.6435 134.835 78.1274C135.435 78.6136 136.181 78.8556 137.082 78.8556C138.009 78.8556 138.796 78.5758 139.436 78.0194C140.078 77.463 140.554 76.7186 140.864 75.7867C141.173 74.8583 141.328 73.8443 141.328 72.7464C141.328 72.1017 141.253 71.4689 141.1 70.8519C140.945 70.2349 140.706 69.6657 140.38 69.1506C140.053 68.6355 139.63 68.2253 139.116 67.9231C138.602 67.6179 138.002 67.4656 137.314 67.4656C136.429 67.4656 135.669 67.6943 135.041 68.1489C134.416 68.6039 133.933 69.2999 133.6 70.2349C133.267 71.1694 133.102 72.3402 133.102 73.7389ZM146.774 66.6641C146.834 66.6671 147.038 66.686 147.393 66.7242C147.745 66.7594 148.014 66.7786 148.199 66.7786C148.304 66.7786 148.441 66.7721 148.606 66.7629C148.767 66.7498 148.93 66.7374 149.081 66.7176C149.237 66.7023 149.421 66.683 149.631 66.6641V72.6353C151.316 70.696 152.966 68.7053 154.582 66.6641C154.724 66.683 154.851 66.7023 154.959 66.7176C155.07 66.7374 155.184 66.7498 155.309 66.7629C155.429 66.7721 155.527 66.7786 155.61 66.7786C155.734 66.7786 155.924 66.7594 156.184 66.7242C156.445 66.686 156.59 66.6671 156.62 66.6641V66.8138C155.75 67.6434 154.842 68.5749 153.893 69.6081C152.947 70.642 152.211 71.4751 151.687 72.1017L157 79.4849V79.733C156.832 79.7268 156.559 79.711 156.179 79.6886C155.794 79.6658 155.53 79.6566 155.381 79.6566C155.214 79.6566 154.94 79.6658 154.559 79.6886C154.181 79.711 153.915 79.7268 153.759 79.733L149.631 73.6849V79.733C149.465 79.7268 149.227 79.711 148.913 79.6886C148.599 79.6658 148.361 79.6566 148.199 79.6566C148.048 79.6566 147.812 79.6658 147.502 79.6886C147.191 79.711 146.949 79.7268 146.774 79.733V66.6641Z" fill="black"/>
<path d="M77.5377 0.93079L137.26 60.7683H125.058L87.26 22.898C86.0209 21.6569 84.0003 21.6569 82.7611 22.898L75.2887 30.3852L67.816 22.898C66.5769 21.6565 64.5562 21.6569 63.3176 22.898L25.5195 60.7683H13.3168L73.0393 0.93079C74.2784 -0.310265 76.2986 -0.310265 77.5377 0.93079Z" fill="#DF2407"/>
<path fill-rule="evenodd" clip-rule="evenodd" d="M46.936 19.1559L32.533 33.5871H14.4052V51.7503L5.40397 60.7683H3.18259C1.43022 60.7683 0.00175069 59.3371 0.00175069 57.5823L0 22.3428C0 20.5875 1.42846 19.1559 3.1804 19.1559H46.936ZM103.641 19.1559H140.708C146.42 19.1559 151.092 23.8373 151.092 29.5591C151.092 35.2813 146.42 39.9628 140.708 39.9628H146.045C151.755 39.9628 156.428 44.6429 156.428 50.3656C156.428 56.087 151.755 60.7683 146.045 60.7683H145.173L118.043 33.5871L103.641 19.1559Z" fill="#00ABC2"/>
<path fill-rule="evenodd" clip-rule="evenodd" d="M46.3118 60.7683L63.3185 43.7299C64.5571 42.4884 66.5773 42.4884 67.8165 43.7299L75.2887 51.2163L82.7612 43.7299C84.0003 42.4884 86.0205 42.4884 87.2596 43.7299L104.265 60.7683H84.8221H65.755H46.3118Z" fill="#00ABC2"/>
</g>
<defs>
<clipPath id="clip0_242_35">
<rect width="157" height="80" fill="white"/>
</clipPath>
</defs>
</svg>
